<svg width="24" height="25" viewBox="0 0 24 25" fill="none" xmlns="http://www.w3.org/2000/svg">
<g clip-path="url(#clip0_256_115)">
<path d="M9.57918 10.0729C9.57918 9.1249 8.84518 8.8999 8.03018 8.8999H5.90918V11.2999H8.19618C9.00518 11.2999 9.57918 10.9459 9.57918 10.0729Z" fill="white"/>
<path d="M16.6658 11.3159C15.6858 11.3159 15.0318 11.9269 14.9678 12.9069H18.2998C18.2088 11.9159 17.6948 11.3159 16.6658 11.3159Z" fill="white"/>
<path d="M8.36781 13.0088H5.90381V15.8428H8.31981C9.24181 15.8428 9.99181 15.5158 9.99181 14.4818C9.99081 13.4268 9.36381 13.0138 8.36781 13.0088Z" fill="white"/>
<path d="M19.75 0.799805H4.25C1.9 0.799805 0 2.69981 0 5.04981V19.9498C0 22.2998 1.9 24.1998 4.25 24.1998H19.75C22.1 24.1998 24 22.2998 24 19.9498V5.04981C24 2.69981 22.1 0.799805 19.75 0.799805ZM14.555 7.68381H18.723V8.69581H14.555V7.68381ZM8.63 17.5998H3.643V7.31381H8.491C10.254 7.31381 11.78 7.81181 11.78 9.85781C11.78 10.8918 11.298 11.4008 10.376 11.8398C11.64 12.1988 12.251 13.3138 12.251 14.6048C12.252 16.6948 10.5 17.5888 8.63 17.5998ZM20.341 14.1978H14.973C14.973 15.3868 15.6 16.0888 16.8 16.0888C17.421 16.0888 18.22 15.7568 18.418 15.1188H20.223C19.666 16.8278 18.514 17.6258 16.736 17.6258C14.39 17.6258 12.927 16.0348 12.927 13.7148C12.927 11.4758 14.465 9.77281 16.736 9.77281C19.066 9.77281 20.357 11.6098 20.357 13.8118C20.357 13.9408 20.346 14.0748 20.341 14.1978Z" fill="white"/>
</g>
<defs>
<clipPath id="clip0_256_115">
<rect width="24" height="24" fill="white" transform="translate(0 0.5)"/>
</clipPath>
</defs>
</svg>
