<svg width="25" height="23" viewBox="0 0 25 23" fill="none" xmlns="http://www.w3.org/2000/svg">
<path d="M21.5 0.5H3.5C2.70435 0.5 1.94129 0.81607 1.37868 1.37868C0.81607 1.94129 0.5 2.70435 0.5 3.5L0.5 22.5H24.5V3.5C24.5 2.70435 24.1839 1.94129 23.6213 1.37868C23.0587 0.81607 22.2956 0.5 21.5 0.5ZM3.5 2.5H21.5C21.7652 2.5 22.0196 2.60536 22.2071 2.79289C22.3946 2.98043 22.5 3.23478 22.5 3.5V4.167L14.622 12.046C14.0584 12.6073 13.2954 12.9225 12.5 12.9225C11.7046 12.9225 10.9416 12.6073 10.378 12.046L2.5 4.167V3.5C2.5 3.23478 2.60536 2.98043 2.79289 2.79289C2.98043 2.60536 3.23478 2.5 3.5 2.5ZM2.5 20.5V7L8.964 13.46C9.90263 14.3963 11.1743 14.922 12.5 14.922C13.8257 14.922 15.0974 14.3963 16.036 13.46L22.5 7V20.5H2.5Z" fill="white"/>
</svg>
