<svg width="25" height="25" viewBox="0 0 25 25" fill="none" xmlns="http://www.w3.org/2000/svg">
<g clip-path="url(#clip0_256_122)">
<path d="M19.5 1.5H5.5C4.17441 1.50159 2.90356 2.02888 1.96622 2.96622C1.02888 3.90356 0.501588 5.17441 0.5 6.5L0.5 18.5C0.501588 19.8256 1.02888 21.0964 1.96622 22.0338C2.90356 22.9711 4.17441 23.4984 5.5 23.5H19.5C20.8256 23.4984 22.0964 22.9711 23.0338 22.0338C23.9711 21.0964 24.4984 19.8256 24.5 18.5V6.5C24.4984 5.17441 23.9711 3.90356 23.0338 2.96622C22.0964 2.02888 20.8256 1.50159 19.5 1.5ZM5.5 3.5H19.5C20.2956 3.5 21.0587 3.81607 21.6213 4.37868C22.1839 4.94129 22.5 5.70435 22.5 6.5V7.5H2.5V6.5C2.5 5.70435 2.81607 4.94129 3.37868 4.37868C3.94129 3.81607 4.70435 3.5 5.5 3.5ZM19.5 21.5H5.5C4.70435 21.5 3.94129 21.1839 3.37868 20.6213C2.81607 20.0587 2.5 19.2957 2.5 18.5V9.5H22.5V18.5C22.5 19.2957 22.1839 20.0587 21.6213 20.6213C21.0587 21.1839 20.2956 21.5 19.5 21.5ZM19.5 13.5C19.5 13.7652 19.3946 14.0196 19.2071 14.2071C19.0196 14.3946 18.7652 14.5 18.5 14.5H6.5C6.23478 14.5 5.98043 14.3946 5.79289 14.2071C5.60536 14.0196 5.5 13.7652 5.5 13.5C5.5 13.2348 5.60536 12.9804 5.79289 12.7929C5.98043 12.6054 6.23478 12.5 6.5 12.5H18.5C18.7652 12.5 19.0196 12.6054 19.2071 12.7929C19.3946 12.9804 19.5 13.2348 19.5 13.5ZM15.5 17.5C15.5 17.7652 15.3946 18.0196 15.2071 18.2071C15.0196 18.3946 14.7652 18.5 14.5 18.5H6.5C6.23478 18.5 5.98043 18.3946 5.79289 18.2071C5.60536 18.0196 5.5 17.7652 5.5 17.5C5.5 17.2348 5.60536 16.9804 5.79289 16.7929C5.98043 16.6054 6.23478 16.5 6.5 16.5H14.5C14.7652 16.5 15.0196 16.6054 15.2071 16.7929C15.3946 16.9804 15.5 17.2348 15.5 17.5ZM3.5 5.5C3.5 5.30222 3.55865 5.10888 3.66853 4.94443C3.77841 4.77998 3.93459 4.65181 4.11732 4.57612C4.30004 4.50043 4.50111 4.48063 4.69509 4.51922C4.88907 4.5578 5.06725 4.65304 5.20711 4.79289C5.34696 4.93275 5.4422 5.11093 5.48079 5.30491C5.51937 5.49889 5.49957 5.69996 5.42388 5.88268C5.34819 6.06541 5.22002 6.22159 5.05557 6.33147C4.89112 6.44135 4.69778 6.5 4.5 6.5C4.23478 6.5 3.98043 6.39464 3.79289 6.20711C3.60536 6.01957 3.5 5.76522 3.5 5.5ZM6.5 5.5C6.5 5.30222 6.55865 5.10888 6.66853 4.94443C6.77841 4.77998 6.93459 4.65181 7.11732 4.57612C7.30004 4.50043 7.50111 4.48063 7.69509 4.51922C7.88907 4.5578 8.06725 4.65304 8.20711 4.79289C8.34696 4.93275 8.4422 5.11093 8.48079 5.30491C8.51937 5.49889 8.49957 5.69996 8.42388 5.88268C8.34819 6.06541 8.22002 6.22159 8.05557 6.33147C7.89112 6.44135 7.69778 6.5 7.5 6.5C7.23478 6.5 6.98043 6.39464 6.79289 6.20711C6.60536 6.01957 6.5 5.76522 6.5 5.5ZM9.5 5.5C9.5 5.30222 9.55865 5.10888 9.66853 4.94443C9.77841 4.77998 9.93459 4.65181 10.1173 4.57612C10.3 4.50043 10.5011 4.48063 10.6951 4.51922C10.8891 4.5578 11.0673 4.65304 11.2071 4.79289C11.347 4.93275 11.4422 5.11093 11.4808 5.30491C11.5194 5.49889 11.4996 5.69996 11.4239 5.88268C11.3482 6.06541 11.22 6.22159 11.0556 6.33147C10.8911 6.44135 10.6978 6.5 10.5 6.5C10.2348 6.5 9.98043 6.39464 9.79289 6.20711C9.60536 6.01957 9.5 5.76522 9.5 5.5Z" fill="white"/>
</g>
<defs>
<clipPath id="clip0_256_122">
<rect width="24" height="24" fill="white" transform="translate(0.5 0.5)"/>
</clipPath>
</defs>
</svg>
