<svg width="24" height="25" viewBox="0 0 24 25" fill="none" xmlns="http://www.w3.org/2000/svg">
<g clip-path="url(#clip0_256_132)">
<path fill-rule="evenodd" clip-rule="evenodd" d="M20.4631 3.988C18.2171 1.74 15.2311 0.501 12.0501 0.5C5.49513 0.5 0.160129 5.834 0.157129 12.392C0.156129 14.488 0.704129 16.534 1.74513 18.338L0.0571289 24.5L6.36113 22.846C8.09813 23.794 10.0541 24.293 12.0441 24.294H12.0491C18.6031 24.294 23.9391 18.959 23.9421 12.401C23.9441 9.224 22.7081 6.235 20.4631 3.988ZM12.0501 22.285H12.0461C10.2721 22.285 8.53313 21.808 7.01513 20.907L6.65413 20.693L2.91313 21.674L3.91213 18.026L3.67713 17.652C2.68713 16.078 2.16513 14.259 2.16613 12.392C2.16813 6.942 6.60313 2.508 12.0551 2.508C14.6951 2.508 17.1771 3.538 19.0431 5.406C20.9091 7.275 21.9361 9.758 21.9351 12.399C21.9321 17.851 17.4981 22.285 12.0501 22.285ZM17.4721 14.882C17.1751 14.733 15.7141 14.014 15.4411 13.915C15.1691 13.816 14.9711 13.766 14.7721 14.063C14.5731 14.36 14.0051 15.03 13.8311 15.229C13.6581 15.427 13.4841 15.452 13.1871 15.303C12.8901 15.154 11.9321 14.841 10.7971 13.828C9.91413 13.04 9.31713 12.067 9.14413 11.769C8.97113 11.471 9.12613 11.311 9.27413 11.163C9.40813 11.03 9.57113 10.816 9.72013 10.642C9.87013 10.47 9.91913 10.346 10.0191 10.147C10.1181 9.949 10.0691 9.775 9.99413 9.626C9.91913 9.478 9.32513 8.015 9.07813 7.42C8.83713 6.84 8.59213 6.919 8.40913 6.91C8.23613 6.901 8.03813 6.9 7.83913 6.9C7.64113 6.9 7.31913 6.974 7.04713 7.272C6.77513 7.57 6.00713 8.289 6.00713 9.751C6.00713 11.214 7.07213 12.627 7.22013 12.825C7.36813 13.023 9.31513 16.025 12.2961 17.312C13.0051 17.618 13.5591 17.801 13.9901 17.938C14.7021 18.164 15.3501 18.132 15.8621 18.056C16.4331 17.971 17.6201 17.337 17.8681 16.643C18.1161 15.949 18.1161 15.353 18.0411 15.23C17.9671 15.105 17.7691 15.031 17.4721 14.882Z" fill="white"/>
</g>
<defs>
<clipPath id="clip0_256_132">
<rect width="24" height="24" fill="white" transform="translate(0 0.5)"/>
</clipPath>
</defs>
</svg>
